# xmcd
#
# Track frame offsets: 
#        150
#        14449
#        27494
#        39291
#        48791
#        60107
#        73935
#        85432
#        96540
#        108748
#
# Disc length: 1597 seconds
#
# Revision: 0
# Processed by: cddbd v1.5.2PL0 Copyright (c) Steve Scherf et al.
# Submitted via: ExactAudioCopyFreeDBPlugin 1.0
#
DISCID=83063b0a
DTITLE=Greg Rowland - Don't worry about me
DYEAR=1900
DGENRE=Country
TTITLE0=Don't worry about me
TTITLE1=Devil woman
TTITLE2=A white sport coat
TTITLE3=Just married
TTITLE4=I can't quit
TTITLE5=Walking piece of heaven
TTITLE6=Story of my life
TTITLE7=Singing the blues
TTITLE8=18 yellow roses
TTITLE9=Begging of you
EXTD=
EXTT0=
EXTT1=
EXTT2=
EXTT3=
EXTT4=
EXTT5=
EXTT6=
EXTT7=
EXTT8=
EXTT9=
PLAYORDER=
